<?xml version="1.0" standalone="no"?>
<!DOCTYPE svg PUBLIC "-//W3C//DTD SVG 20010904//EN"
 "http://www.w3.org/TR/2001/REC-SVG-20010904/DTD/svg10.dtd">
<svg version="1.0" xmlns="http://www.w3.org/2000/svg"
 width="40.000000pt" height="40.000000pt" viewBox="0 0 40.000000 40.000000"
 preserveAspectRatio="xMidYMid meet">

<g transform="translate(0.000000,40.000000) scale(0.100000,-0.100000)"
fill="#000000" stroke="none">
<path d="M130 324 c0 -13 58 -69 65 -63 2 3 -11 21 -30 39 -19 19 -35 29 -35
24z"/>
<path d="M110 293 c0 -4 10 -17 22 -30 20 -21 20 -24 5 -41 -24 -26 -21 -39 3
-17 25 23 26 57 2 78 -20 18 -32 22 -32 10z"/>
<path d="M246 268 c-10 -14 -12 -27 -6 -38 12 -22 40 -45 40 -32 0 5 -7 12
-15 16 -20 7 -19 35 2 58 9 10 11 18 5 18 -6 0 -18 -10 -26 -22z"/>
<path d="M190 240 c0 -5 5 -10 10 -10 6 0 10 5 10 10 0 6 -4 10 -10 10 -5 0
-10 -4 -10 -10z"/>
<path d="M183 213 c-7 -2 -13 -9 -13 -15 0 -7 5 -6 14 1 11 9 20 6 44 -14 41
-34 52 -32 17 5 -28 30 -38 33 -62 23z"/>
<path d="M80 120 c0 -13 3 -20 7 -17 3 4 12 2 20 -4 10 -9 13 -6 12 17 0 16
-3 23 -6 16 -4 -10 -8 -10 -19 -1 -11 9 -14 7 -14 -11z"/>
<path d="M132 118 c2 -12 10 -23 18 -25 13 -4 13 -3 0 6 -13 10 -13 11 0 11
12 0 13 2 1 9 -11 7 -11 9 0 14 10 4 8 6 -4 6 -13 1 -18 -5 -15 -21z"/>
<path d="M183 120 c1 -22 23 -22 24 0 1 9 -5 17 -12 17 -7 0 -13 -8 -12 -17z"/>
<path d="M234 115 c1 -28 30 -25 34 3 2 19 1 19 -4 2 -7 -25 -21 -26 -27 -2
-3 13 -4 12 -3 -3z"/>
<path d="M280 131 c0 -6 5 -13 11 -17 8 -4 7 -9 -2 -15 -10 -6 -10 -9 -2 -9
18 0 27 21 13 30 -10 6 -9 9 1 13 10 4 9 6 -3 6 -10 1 -18 -3 -18 -8z"/>
</g>
</svg>
